PathFileType	4	(X/Y/Z)	Patient4_TMGait_0pt6_02_right_12.trc.trc
DataRate	CameraRate	NumFrames	NumMarkers	Units	OrigDataRate	OrigDataStartFrame	OrigNumFrames
80.000000000000	80.000000000000	4	33	mm	80.000000000000	106	       141
Frame#	Time	Sacral			L.Shoulder			Chest			R.Shoulder			Neck			R.ASIS			L.ASIS			R.Thigh.Superior			R.Thigh.Lateral			R.Thigh.Inferior			R.Patella			L.Thigh.Superior			L.Thigh.Lateral			L.Thigh.Inferior			L.Patella			L.Shank.Superior			L.Shank.Lateral			L.Shank.Inferior			R.Shank.Superior			R.Shank.Lateral			R.Shank.Inferior			R.Heel			R.Midfoot.Superior			R.Midfoot.Lateral			R.Toe			L.Heel			L.Midfoot.Lateral			L.Midfoot.Superior			L.Toe			L.Elbow			L.Wrist			R.Elbow			R.Wrist			
		X1	Y1	Z1	X2	Y2	Z2	X3	Y3	Z3	X4	Y4	Z4	X5	Y5	Z5	X6	Y6	Z6	X7	Y7	Z7	X8	Y8	Z8	X9	Y9	Z9	X10	Y10	Z10	X11	Y11	Z11	X12	Y12	Z12	X13	Y13	Z13	X14	Y14	Z14	X15	Y15	Z15	X16	Y16	Z16	X17	Y17	Z17	X18	Y18	Z18	X19	Y19	Z19	X20	Y20	Z20	X21	Y21	Z21	X22	Y22	Z22	X23	Y23	Z23	X24	Y24	Z24	X25	Y25	Z25	X26	Y26	Z26	X27	Y27	Z27	X28	Y28	Z28	X29	Y29	Z29	X30	Y30	Z30	X31	Y31	Z31	X32	Y32	Z32	X33	Y33	Z33	

106	15.442500000000	718.384108067315	1011.783341029694	420.052464370112	905.534604593804	1439.984286840723	241.647875935295	1003.718164510299	1369.752339637758	404.763954466957	915.204659409551	1444.812386472609	575.350213050883	900.158781701869	1500.174280647954	392.772910223948	942.251004935591	953.875334216966	546.158293016622	938.282694721438	964.352468908419	271.855322184034	1035.370157900574	796.151611900677	519.998218164612	1007.871389646413	673.844642685951	597.028196874818	1100.370342369027	640.504226861311	518.254767547546	1131.082949306551	531.703905009977	544.335182162729	971.668519722928	745.408401832599	306.207961796949	873.219015501958	635.722764275373	248.055897864019	948.614035140428	552.161577392906	313.333900892905	941.967079067315	482.760088217073	325.767148212095	911.557256666952	413.209882749701	319.214232773907	816.042047961261	303.474459818749	270.027756022515	856.948106966882	191.447112733916	345.357353018229	1066.695692195393	448.351947223071	552.230290816279	953.018538174328	388.901971133461	610.312665496894	960.225371725663	277.901101832318	564.226078370967	774.750222682051	185.027909067601	534.454933426456	948.950851407218	147.668199292428	574.896860778023	840.409246674881	130.273452960608	605.947085978607	1028.574559897031	44.980829680723	597.931795646114	720.804754451309	39.740054579971	389.197951507975	795.572417841247	35.506114355052	309.330173633813	878.955971914362	95.651346678632	336.113222498139	1007.719223636692	40.866745192447	308.889409459879	856.900731165535	1097.829863982802	104.244522637155	1031.431149363055	903.781510808458	104.303809983825	873.920519147906	1095.579721549076	692.353710796209	969.585576329739	852.023796776924	681.223448469653	
107	15.455000000000	718.219503130323	1011.857437590651	419.426095993786	907.022686158809	1439.835500655771	241.293917637867	1004.001052869444	1369.536904826377	405.097575449323	914.538102263866	1444.690451058001	575.165831529829	900.578701315801	1500.104737264942	392.382358042782	941.695758996242	953.969501853887	546.224543287565	938.337352234040	964.260292984551	271.929123446266	1035.136801126019	797.340535236121	519.972303478249	1008.880105610111	674.885689041491	597.384834944675	1101.108917972938	642.034873453548	518.289472356727	1133.380200030294	535.083368331212	544.502042879991	969.229077644170	744.373149263105	306.144130319092	868.986686146523	635.888543864694	247.569949333830	942.931785440040	551.364313384055	312.829015167814	935.282181521242	482.241876698882	325.250340451703	904.950164147096	413.043428527442	318.641924859725	808.987500484910	303.615786120944	269.615380941939	849.689250228725	191.456861429153	344.993380138436	1073.048610356628	449.987118835801	552.576691409259	963.379604683101	384.366133964215	611.316576472441	976.562372188318	273.906249251469	565.092963318857	796.630621042814	170.697618253361	536.241010909340	972.665022295366	143.179095156302	575.759956417286	865.542238290883	119.821723600837	607.537720998974	1058.041565559050	45.183510123365	598.525776840266	713.311307367704	39.860237798308	389.134405696209	788.049458365890	35.498373040657	309.312347896456	871.477651796223	95.634054923204	335.965308120749	1000.200734036289	40.781130970465	308.843525346728	861.732323008736	1097.888350063709	102.710684166929	1043.407373415894	910.824990128128	103.271803621195	864.067152632078	1097.070693604491	692.475426849495	944.099343490637	847.592082643246	684.446520696290	
108	15.467500000000	718.167464985910	1011.799010441809	418.963844592245	908.421852652680	1439.528809335250	241.121387077939	1004.333122405681	1369.143240649795	405.514487734674	914.077662758343	1444.411027991346	575.119565704645	901.071708989119	1499.880791448158	392.167852433401	941.256169401960	953.798627276161	546.330044457358	938.457113029727	964.063172070229	272.040800874664	1034.569029459445	797.765499658587	520.051067484062	1009.061606985608	675.222724767284	597.786700061729	1100.971693883342	642.622761381004	518.420121983644	1134.607083775581	537.732754691588	544.634462613429	966.854744226211	743.279248006729	306.019942973599	864.746006338616	636.006924682830	247.138515130324	937.248894875911	550.542804631738	312.349350355294	928.643317420919	481.724095609848	324.752800115950	898.373012800926	412.865682930703	318.111932074392	801.948634421372	303.750558772417	269.270604262809	842.446049887757	191.453185093670	344.678754512257	1078.570786613865	451.161823634106	552.952453812751	973.575318081380	379.377538864995	612.558685145624	992.909246932369	269.859513576461	566.135842297661	819.514460559405	156.136602548847	538.333342140831	996.760616119587	139.102159706062	576.882789175079	891.556998043963	109.646919943297	609.483512732065	1087.836309647502	46.425838939289	599.474450032791	705.830519010546	39.971439993047	389.079412894316	780.522778628368	35.493010951604	309.310845614886	863.998016159509	95.612695082391	335.843793820990	992.674937124116	40.701476607841	308.799948382886	866.409393750076	1097.815321409792	101.414290462282	1055.075136575036	918.175020563152	102.430074583486	854.176929973017	1098.674067770873	692.420229822034	918.966302878772	844.626903326666	687.503023745797	
109	15.480000000000	718.229816808372	1011.607064610982	418.654518396316	909.723613399744	1439.074472333521	241.132936804412	1004.715672197193	1368.581779808595	406.013966552980	913.819700603156	1443.982081156981	575.207247557995	901.638040802422	1499.505911193608	392.130853648846	940.958231952358	953.379839234543	546.488677894637	938.687636657585	963.777589783035	272.178149525530	1033.687774881334	797.408467061911	520.242864260899	1008.387776644236	674.833410934562	598.232842346677	1099.959808308656	642.252109703103	518.658653466667	1134.764653903835	539.616384638205	544.719532444206	964.526934087405	742.120377253766	305.872273085672	860.514198821461	636.077964009516	246.775199173612	931.580471297262	549.696796517670	311.922825500694	922.072933771462	481.201267421327	324.294695440283	891.833533853489	412.677623434883	317.642835725370	794.936927851111	303.879160096434	269.002781508266	835.220807979645	191.435288633102	344.424327393060	1083.217163538817	451.887837018542	553.340577148970	983.521855251472	374.059036588915	613.984560160338	1009.106417321182	265.906630512619	567.286528095712	843.233432495083	141.624422061539	540.591504016456	1020.987339370062	135.636140110852	578.181737360785	918.208768600383	100.007722013699	611.656549846142	1117.623608681366	48.911038667521	600.732455896354	698.354940905574	40.074622114665	389.036395723041	772.991436219604	35.492542657653	309.327077769915	856.515793144004	95.585751595146	335.753678270022	985.139194949008	40.626949407524	308.761275800726	870.937114880575	1097.611107491676	100.361301786425	1066.372674277099	925.794243024624	101.790738232283	844.278549589492	1100.421768432344	692.197433787051	894.385487404900	843.046304428605	690.378856422693	
